<svg width="64" height="64" viewBox="0 0 64 64" fill="none" xmlns="http://www.w3.org/2000/svg">
  <rect width="64" height="64" rx="18" fill="#F3F7F4"/>
  <path d="M32 14C22.06 14 14 22.19 14 32.29C14 40.37 19.16 47.22 26.31 49.64C27.21 49.81 27.54 49.24 27.54 48.75C27.54 48.31 27.52 46.86 27.51 45.32C22.5 46.43 21.44 43.13 21.44 43.13C20.62 40.98 19.43 40.41 19.43 40.41C17.79 39.27 19.55 39.29 19.55 39.29C21.37 39.42 22.33 41.2 22.33 41.2C23.94 44.04 26.56 43.22 27.59 42.74C27.75 41.54 28.22 40.72 28.73 40.25C24.73 39.78 20.52 38.2 20.52 31.11C20.52 29.09 21.23 27.44 22.41 26.14C22.22 25.67 21.61 23.76 22.59 21.16C22.59 21.16 24.11 20.66 27.52 23.04C28.97 22.63 30.52 22.43 32.06 22.42C33.6 22.43 35.15 22.63 36.61 23.04C40.01 20.66 41.53 21.16 41.53 21.16C42.51 23.76 41.9 25.67 41.71 26.14C42.89 27.44 43.6 29.09 43.6 31.11C43.6 38.22 39.38 39.78 35.37 40.24C36.01 40.81 36.58 41.94 36.58 43.67C36.58 46.15 36.56 48.16 36.56 48.75C36.56 49.24 36.88 49.82 37.8 49.63C44.94 47.21 50.1 40.36 50.1 32.29C50.1 22.19 42.04 14 32 14Z" fill="#171717"/>
</svg>
