<svg width="800" height="600" viewBox="0 0 800 600" fill="none" xmlns="http://www.w3.org/2000/svg">
  <rect width="800" height="600" fill="#F7F9FC"/>
  <circle cx="120" cy="110" r="70" fill="#2FD27F" fill-opacity="0.18"/>
  <circle cx="700" cy="470" r="90" fill="#7B38FF" fill-opacity="0.12"/>
  <rect x="122" y="118" width="556" height="364" rx="28" fill="white"/>
  <rect x="160" y="160" width="280" height="280" rx="24" fill="#20242D"/>
  <rect x="468" y="176" width="160" height="24" rx="12" fill="#D7DDE8"/>
  <rect x="468" y="228" width="130" height="18" rx="9" fill="#E6EBF2"/>
  <rect x="468" y="266" width="170" height="18" rx="9" fill="#E6EBF2"/>
  <rect x="468" y="304" width="118" height="18" rx="9" fill="#E6EBF2"/>
  <rect x="468" y="354" width="132" height="52" rx="14" fill="#2FD27F"/>
  <path d="M302 208C270 208 244 234 244 266C244 314 302 362 302 362C302 362 360 314 360 266C360 234 334 208 302 208Z" fill="#2FD27F"/>
  <rect x="288" y="240" width="28" height="52" rx="6" fill="white"/>
  <rect x="276" y="252" width="52" height="28" rx="6" fill="white"/>
  <text x="176" y="404" fill="#FFFFFF" font-family="Arial, sans-serif" font-size="30" font-weight="700">DDI SAFETY</text>
</svg>
